HIERARCHY
ROOT Hips
{
	OFFSET 62.890800 8.863803 43.568401
	CHANNELS 6 Xposition Yposition Zposition Zrotation Xrotation Yrotation
	JOINT Chest
	{
		OFFSET -0.160400 1.630001 7.806301
		CHANNELS 6 Xposition Yposition Zposition Zrotation Xrotation Yrotation
		JOINT Chest2
		{
			OFFSET 0.000000 0.000000 3.197998
			CHANNELS 6 Xposition Yposition Zposition Zrotation Xrotation Yrotation
			JOINT Neck
			{
				OFFSET 0.000000 0.000001 7.440701
				CHANNELS 6 Xposition Yposition Zposition Zrotation Xrotation Yrotation
				JOINT Head
				{
					OFFSET 0.000000 0.000000 2.173901
					CHANNELS 6 Xposition Yposition Zposition Zrotation Xrotation Yrotation
					End Site
					{
						OFFSET 0.000000 0.000001 10.420303
					}
				}
			}
			JOINT LeftCollar
			{
				OFFSET 2.426399 -1.880099 4.759399
				CHANNELS 6 Xposition Yposition Zposition Zrotation Xrotation Yrotation
				JOINT LeftShoulder
				{
					OFFSET 4.420197 0.000000 0.000000
					CHANNELS 6 Xposition Yposition Zposition Zrotation Xrotation Yrotation
					JOINT LeftElbow
					{
						OFFSET 0.000000 -0.000001 -10.347099
						CHANNELS 6 Xposition Yposition Zposition Zrotation Xrotation Yrotation
						JOINT LeftWrist
						{
							OFFSET 0.000000 -0.000001 -12.496300
							CHANNELS 6 Xposition Yposition Zposition Zrotation Xrotation Yrotation
							End Site
							{
								OFFSET 0.000000 0.000000 -2.173901
							}
						}
					}
				}
			}
			JOINT RightCollar
			{
				OFFSET -2.781502 -1.903799 5.072601
				CHANNELS 6 Xposition Yposition Zposition Zrotation Xrotation Yrotation
				JOINT RightShoulder
				{
					OFFSET -4.012100 0.000000 0.000000
					CHANNELS 6 Xposition Yposition Zposition Zrotation Xrotation Yrotation
					JOINT RightElbow
					{
						OFFSET 0.000000 -0.000001 -10.346600
						CHANNELS 6 Xposition Yposition Zposition Zrotation Xrotation Yrotation
						JOINT RightWrist
						{
							OFFSET 0.000000 -0.000001 -12.562599
							CHANNELS 6 Xposition Yposition Zposition Zrotation Xrotation Yrotation
							End Site
							{
								OFFSET 0.000000 0.000000 -2.173901
							}
						}
					}
				}
			}
		}
	}
	JOINT LeftHip
	{
		OFFSET 2.047997 -0.047200 -2.693199
		CHANNELS 6 Xposition Yposition Zposition Zrotation Xrotation Yrotation
		JOINT LeftKnee
		{
			OFFSET 0.000000 -0.000001 -18.824400
			CHANNELS 6 Xposition Yposition Zposition Zrotation Xrotation Yrotation
			JOINT LeftAnkle
			{
				OFFSET 0.000000 -0.000002 -19.078199
				CHANNELS 6 Xposition Yposition Zposition Zrotation Xrotation Yrotation
				End Site
				{
					OFFSET 0.000000 -9.342100 0.000001
				}
			}
		}
	}
	JOINT RightHip
	{
		OFFSET -2.129898 -0.022300 -2.538300
		CHANNELS 6 Xposition Yposition Zposition Zrotation Xrotation Yrotation
		JOINT RightKnee
		{
			OFFSET 0.000000 -0.000001 -18.644600
			CHANNELS 6 Xposition Yposition Zposition Zrotation Xrotation Yrotation
			JOINT RightAnkle
			{
				OFFSET 0.000000 -0.000002 -18.801399
				CHANNELS 6 Xposition Yposition Zposition Zrotation Xrotation Yrotation
				End Site
				{
					OFFSET 0.000000 -8.914600 0.000001
				}
			}
		}
	}
}
MOTION
Frames: 8
Frame Time: 0.041667
27.031487 -37.618397 46.783146 12.136900 1.532610 0.922703 -0.160402 1.629996 7.806299 -12.315990 16.329893 2.212492 0.000005 0.000000 3.197999 9.120703 -1.607098 1.056902 -0.000003 -0.000005 7.440701 -6.904206 31.495758 -1.326140 -0.000008 0.000006 2.173900 0.598935 6.860157 -1.694278 2.426401 -1.880101 4.759402 -12.540027 6.373375 -2.627535 4.420194 -0.000003 0.000011 -69.204576 -22.230500 -38.945220 -0.000001 -0.000004 -10.347088 -3.554281 -10.124858 3.451871 0.000000 -0.000007 -12.496305 442.789471 9.654016 5.038068 -2.781502 -1.903808 5.072604 10.057460 8.257807 0.801979 -4.012105 -0.000003 0.000001 65.667276 -27.654459 48.595300 0.000002 0.000005 -10.346597 -47.032717 -10.637351 -12.088252 -0.000000 0.000009 -12.562601 694.190812 -4.117663 23.455904 2.047997 -0.047203 -2.693200 11.590267 -8.059692 -9.932469 0.000000 -0.000003 -18.824404 198.526278 164.410303 -177.033599 -0.000010 -0.000004 -19.078203 -42.787365 34.341938 9.239582 -2.129900 -0.022300 -2.538300 -376.857682 -9.682688 2.493640 0.000001 0.000001 -18.644602 164.353216 149.185279 179.656542 0.000003 0.000002 -18.801401 25.902721 33.771498 -2.175392
27.165894 -37.675301 46.822540 12.292738 1.473702 0.927033 -0.160401 1.629993 7.806312 -12.479807 16.358020 2.269081 0.000006 0.000003 3.198007 9.447006 -1.553891 1.099146 -0.000004 0.000007 7.440702 -6.851056 31.864280 -1.490603 -0.000006 0.000003 2.173903 0.607019 6.872798 -1.727204 2.426404 -1.880097 4.759400 -12.408561 6.382250 -2.982846 4.420196 0.000010 0.000007 -69.571269 -22.480147 -39.131370 -0.000005 -0.000001 -10.347093 -3.170105 -10.384791 3.562400 -0.000000 0.000000 -12.496302 442.466157 9.594911 4.964643 -2.781505 -1.903791 5.072606 10.094180 8.208028 0.837662 -4.012101 -0.000000 0.000012 65.356537 -27.825424 48.203227 0.000010 0.000000 -10.346593 -47.589999 -10.548105 -12.104390 0.000000 0.000000 -12.562603 694.348671 -3.645476 23.257510 2.047996 -0.047205 -2.693193 11.349257 -7.862430 -9.871838 -0.000001 -0.000002 -18.824398 198.515063 164.453839 -176.990487 -0.000008 0.000003 -19.078205 -42.970312 34.551373 9.422488 -2.129898 -0.022301 -2.538300 -376.852873 -9.555568 2.671939 0.000003 -0.000000 -18.644598 163.792499 149.295709 179.827611 0.000000 -0.000006 -18.801403 26.124085 34.089232 -2.447857
27.291187 -37.724091 46.861046 12.383914 1.474355 0.922821 -0.160407 1.630002 7.806298 -12.578479 16.374436 2.314967 0.000002 0.000000 3.197998 9.705681 -1.515561 1.133924 -0.000006 0.000004 7.440705 -6.799491 32.216507 -1.653818 -0.000008 -0.000000 2.173901 0.598893 6.889861 -1.768639 2.426404 -1.880102 4.759400 -12.312730 6.448923 -3.279867 4.420197 0.000010 0.000012 -69.919458 -22.657240 -39.385248 0.000002 -0.000006 -10.347085 -2.923263 -10.624475 3.647386 -0.000009 -0.000001 -12.496297 442.321657 9.570748 4.927736 -2.781500 -1.903801 5.072599 10.190912 8.227154 0.821299 -4.012100 0.000003 -0.000002 65.080693 -27.964036 47.919156 0.000006 -0.000003 -10.346599 -48.220435 -10.464639 -12.140368 -0.000001 -0.000005 -12.562599 694.558767 -3.220862 22.983913 2.047998 -0.047195 -2.693202 11.189949 -7.746783 -9.800924 -0.000001 -0.000006 -18.824402 198.506758 164.489246 -176.950517 -0.000001 -0.000006 -19.078199 -43.212008 34.761749 9.603307 -2.129909 -0.022297 -2.538307 -377.003356 -9.576636 2.800461 0.000002 0.000004 -18.644602 163.317992 149.299370 180.061108 -0.000005 -0.000003 -18.801399 26.431528 34.386936 -2.668794
27.406891 -37.765896 46.897846 12.435964 1.526557 0.911974 -0.160400 1.629995 7.806313 -12.638102 16.385158 2.356167 0.000004 0.000002 3.198000 9.910306 -1.492935 1.162577 -0.000009 0.000001 7.440688 -6.753912 32.542750 -1.813581 -0.000003 0.000005 2.173900 0.583595 6.907082 -1.822009 2.426404 -1.880098 4.759382 -12.250907 6.560839 -3.528451 4.420199 0.000007 -0.000007 -70.246235 -22.781964 -39.674233 0.000012 -0.000004 -10.347093 -2.775919 -10.850713 3.711616 0.000000 -0.000003 -12.496294 442.298681 9.569517 4.915612 -2.781502 -1.903795 5.072594 9.695410 8.146239 1.110394 -4.012105 0.000002 0.000002 65.350485 -28.250883 47.464972 0.000001 -0.000002 -10.346595 -48.953175 -10.395247 -12.223029 -0.000004 -0.000003 -12.562594 694.576307 -2.535409 23.876384 2.047996 -0.047205 -2.693189 11.278297 -7.772250 -9.707438 0.000001 -0.000006 -18.824400 198.420096 164.461830 -176.940463 -0.000002 -0.000002 -19.078201 -43.620668 34.952417 9.828225 -2.129896 -0.022303 -2.538291 -377.121901 -9.678737 2.900945 0.000003 0.000003 -18.644604 162.938110 149.250357 180.272557 0.000000 0.000000 -18.801399 26.664336 34.637303 -2.865576
27.513489 -37.801285 46.931637 12.469833 1.619836 0.889494 -0.160400 1.630003 7.806299 -12.682310 16.397490 2.405842 0.000004 0.000003 3.198002 10.076705 -1.485151 1.186024 -0.000004 -0.000002 7.440695 -6.723424 32.835178 -1.965298 -0.000005 -0.000004 2.173924 0.560656 6.909909 -1.886372 2.426404 -1.880099 4.759392 -12.212260 6.697368 -3.745970 4.420197 0.000005 0.000018 -70.557336 -22.873627 -39.964885 -0.000000 0.000000 -10.347097 -2.659545 -11.072952 3.771565 -0.000001 -0.000004 -12.496294 442.315018 9.577256 4.915254 -2.781504 -1.903800 5.072593 9.844499 8.257639 1.054251 -4.012101 -0.000002 0.000009 65.163584 -28.379940 47.349842 -0.000010 0.000004 -10.346592 -49.749483 -10.344537 -12.351879 0.000002 -0.000006 -12.562599 695.064256 -2.197888 23.660665 2.047995 -0.047203 -2.693205 11.297280 -7.812651 -9.607346 0.000000 0.000000 -18.824406 198.319979 164.456243 -176.909126 0.000005 -0.000002 -19.078203 -43.911303 35.128001 9.967466 -2.129898 -0.022300 -2.538302 -377.476852 -9.918308 2.957756 -0.000001 0.000002 -18.644602 162.694327 149.082867 180.558551 -0.000001 0.000000 -18.801399 27.010943 34.848421 -3.032346
27.611282 -37.831192 46.961540 12.493598 1.746574 0.857695 -0.160402 1.629995 7.806294 -12.598972 16.420890 2.442391 0.000004 -0.000001 3.198000 10.100374 -1.495312 1.190153 -0.000004 0.000004 7.440702 -6.707688 33.090269 -2.107015 -0.000004 0.000005 2.173910 0.527058 6.917949 -1.951458 2.426403 -1.880100 4.759397 -12.186482 6.835908 -3.935737 4.420199 0.000006 0.000010 -70.845406 -22.945443 -40.224213 0.000005 -0.000002 -10.347098 -2.499846 -11.303184 3.850441 -0.000001 0.000001 -12.496302 442.277671 9.578519 4.914795 -2.781500 -1.903797 5.072608 9.992472 8.389029 1.002904 -4.012105 0.000002 0.000004 64.931733 -28.434622 47.311365 -0.000003 -0.000003 -10.346594 -50.614027 -10.334972 -12.656682 0.000001 0.000002 -12.562600 695.670722 -1.939813 23.511321 2.047994 -0.047205 -2.693196 11.398411 -7.919164 -9.487266 -0.000001 -0.000001 -18.824400 198.146711 164.421423 -176.885698 -0.000002 -0.000003 -19.078199 -44.178517 35.266142 10.063254 -2.129900 -0.022302 -2.538298 -377.889997 -10.236606 3.000034 -0.000004 -0.000004 -18.644604 162.571425 148.842075 180.844831 0.000002 0.000002 -18.801403 27.381933 35.001984 -3.200839
27.700695 -37.855892 46.986538 12.364758 1.901292 0.813076 -0.160405 1.630003 7.806317 -12.479142 16.439227 2.508360 0.000006 -0.000001 3.197995 10.214866 -1.513298 1.205329 -0.000007 0.000003 7.440693 -6.717279 33.307349 -2.226378 -0.000003 0.000005 2.173915 0.487331 6.915786 -2.015452 2.426402 -1.880094 4.759398 -12.160517 6.956328 -4.107476 4.420198 0.000006 0.000002 -71.102945 -23.013110 -40.418768 0.000006 -0.000003 -10.347089 -2.282625 -11.552165 3.951781 0.000002 0.000001 -12.496303 442.149700 9.566197 4.914886 -2.781503 -1.903800 5.072597 10.124167 8.519872 0.965188 -4.012100 0.000003 -0.000002 64.840154 -28.555165 47.293285 0.000003 0.000000 -10.346597 -51.499647 -10.317124 -12.884224 0.000004 0.000002 -12.562603 696.342594 -2.052239 22.228250 2.047995 -0.047197 -2.693193 11.722820 -8.084361 -9.334539 -0.000002 -0.000001 -18.824400 197.900647 164.356290 -176.873308 -0.000001 0.000004 -19.078203 -44.404265 35.357530 10.109097 -2.129896 -0.022297 -2.538289 -378.207191 -10.631478 3.045553 0.000000 0.000003 -18.644602 162.592626 148.524690 181.122847 0.000004 -0.000003 -18.801399 27.800014 35.087573 -3.394526
27.781490 -37.875889 47.006443 12.419636 2.087792 0.766456 -0.160402 1.630004 7.806303 -12.539500 16.457015 2.561269 0.000003 -0.000001 3.198002 10.296856 -1.491202 1.214469 -0.000005 0.000003 7.440692 -6.732529 33.440367 -2.319808 -0.000004 -0.000002 2.173898 0.439173 6.898647 -2.070839 2.426403 -1.880097 4.759387 -12.104775 7.001206 -4.273326 4.420196 0.000008 -0.000002 -71.324537 -23.087815 -40.534352 -0.000002 -0.000002 -10.347099 -1.972302 -11.828536 4.087037 -0.000001 -0.000005 -12.496298 441.881383 9.533130 4.920019 -2.781502 -1.903800 5.072593 10.254255 8.593692 0.966544 -4.012102 -0.000001 0.000003 64.780472 -28.680709 47.289764 -0.000005 -0.000003 -10.346599 -52.404480 -10.313895 -13.151545 0.000004 0.000000 -12.562595 697.093314 -2.000769 22.250559 2.047996 -0.047204 -2.693197 11.932418 -8.311986 -9.168182 0.000000 0.000003 -18.824400 197.575981 164.255190 -176.874319 0.000006 -0.000002 -19.078199 -44.574149 35.390530 10.105575 -2.129897 -0.022302 -2.538299 -378.766009 -11.097801 3.078518 0.000001 0.000001 -18.644602 162.798160 148.120452 181.382654 -0.000000 0.000002 -18.801403 28.277125 35.088772 -3.636018
